<?xml version="1.0" encoding="iso-8859-1"?>
<!-- Generator: Adobe Illustrator 19.0.0, SVG Export Plug-In . SVG Version: 6.00 Build 0)  -->
<svg version="1.1" id="Capa_1" xmlns="http://www.w3.org/2000/svg" xmlns:xlink="http://www.w3.org/1999/xlink" x="0px" y="0px"
	 viewBox="0 0 488.8 488.8" style="enable-background:new 0 0 488.8 488.8;" xml:space="preserve">
<g>
	<g>
		<path d="M393.791,415.9c53.2,0,95.9-43.8,94.9-96.9c0-30.2-14.6-58.4-37.5-76.1c22.9-17.7,37.5-44.8,37.5-76.1
			c0-38.6-22.9-73-56.3-88.6c-5.2-43.8-42.7-78.2-87.6-78.2c-44.8,0-82.3,34.4-87.6,78.2c-33.4,15.6-56.3,50-56.3,88.6
			c0,30.2,14.6,58.4,37.5,76.1c-22.9,17.7-37.5,44.8-37.5,76.1c0,53.2,42.7,96.9,95.9,96.9h28.1v31.3h-40.5
			c-11.5,0-20.8,9.4-20.8,20.8s9.4,20.8,20.8,20.8h125.1c11.5,0,20.8-9.4,20.8-20.8s-9.4-20.8-20.8-20.8h-42.7v-31.3H393.791z
			 M295.891,375.2c-30.2,0-55.2-25-55.2-56.3s25-56.3,55.2-56.3c11.5,0,20.8-9.4,20.8-20.8c0-10.4-8.3-19.8-19.8-20.8
			c-30.2,0-55.2-25-55.2-56.3c0-25,16.7-47.9,40.7-54.2c9.3-4.6,15.1-11.6,14.6-22.9c0-27.1,21.9-49,47.9-49
			c26.1,0,47.9,21.9,47.9,49c-1.4,11.9,4.3,19,14.6,22.9c24,6.3,40.7,29.2,40.7,54.2c0,31.3-25,56.3-55.2,56.3
			c-11.5,0-20.8,9.4-20.8,20.8c0,11.4,9.4,20.8,20.8,20.8c30.2,0,55.2,25,55.2,56.3s-25,56.3-55.2,56.3H295.891z"/>
		<path d="M213.491,26c-3.1-11.5-14.6-17.7-25-14.6c-3.2,0.8-51.6,14.4-81.2,56.4c-29.7-42.2-79-56.6-81.4-57.4
			c-10.4-3.1-21.9,4.2-25,14.6s3.1,21.9,13.6,25c1,0,61.5,16.7,71.9,71.9c3.2,22.5,35.8,22.5,40.7,1c10.4-54.2,69.8-70.9,71.9-71.9
			C210.391,47.9,216.691,36.5,213.491,26z"/>
		<path d="M142.591,187.6c-2.2,0.7-31.3,9.2-52.3,33.8c-21.3-25.4-51.5-34.1-53-34.9c-10.4-3.1-21.9,4.2-25,14.6s4.2,21.9,14.6,25
			c1,0,36.5,11.5,42.7,42.7c5.5,23.6,36,20.5,40.7,1c6.3-31.3,40.7-42.7,42.7-42.7c11.5-3.1,17.7-14.6,14.6-25
			C164.491,190.7,153.091,184.5,142.591,187.6z"/>
	</g>
</g>
<g>
</g>
<g>
</g>
<g>
</g>
<g>
</g>
<g>
</g>
<g>
</g>
<g>
</g>
<g>
</g>
<g>
</g>
<g>
</g>
<g>
</g>
<g>
</g>
<g>
</g>
<g>
</g>
<g>
</g>
</svg>
